<svg xmlns="http://www.w3.org/2000/svg" width="471.448" height="102" viewBox="0 0 471.448 102">
  <g id="Component_2_1" data-name="Component 2 – 1" transform="translate(0 1)">
    <g id="Component_1_1" data-name="Component 1 – 1" transform="translate(87.448)">
      <text id="SPORTG" transform="translate(0 76)" fill="#fff" stroke="#fff" stroke-width="1" font-size="100" font-family="SitkaText, Sitka Text"><tspan x="0" y="0">SPORTG</tspan></text>
    </g>
    <g id="Icon_material-fitness-center" data-name="Icon material-fitness-center" transform="translate(0 15.588)">
      <path id="Icon_material-fitness-center-2" data-name="Icon material-fitness-center" d="M74.268,44.155,79.948,39.3l-5.681-4.854L60.086,46.565,26.043,17.473,40.224,5.354,34.544.5,28.863,5.354,23.182.5l-8.5,7.265L9,2.91,3.32,7.765,9,12.619.5,19.883l5.681,4.854L.5,29.592l5.681,4.854L20.362,22.327,54.406,51.419,40.224,63.538,45.9,68.393l5.681-4.854,5.681,4.854,8.5-7.264,5.681,4.854,5.681-4.854-5.681-4.854,8.5-7.264Z" transform="translate(-0.5 -0.5)" fill="#191717"/>
    </g>
  </g>
</svg>
